<svg width="160" height="120" viewBox="0 0 160 120" fill="none" xmlns="http://www.w3.org/2000/svg">
<defs><linearGradient id="bg" x1="16" y1="8" x2="144" y2="112"><stop stop-color="#EFF6FF"/><stop offset=".5" stop-color="#F8FAFC"/><stop offset="1" stop-color="#F0FFF8"/></linearGradient><filter id="s"><feDropShadow dx="0" dy="12" stdDeviation="9" flood-color="#111827" flood-opacity=".16"/></filter></defs>
<rect width="160" height="120" rx="28" fill="url(#bg)"/>
<ellipse cx="82" cy="97" rx="50" ry="9" fill="#0F172A" opacity=".08"/>
<g filter="url(#s)">
<rect x="38" y="42" width="54" height="52" rx="10" fill="#0EA5E9"/>
<rect x="44" y="50" width="12" height="14" rx="3" fill="#fff" opacity=".8"/>
<rect x="62" y="50" width="12" height="14" rx="3" fill="#fff" opacity=".8"/>
<rect x="44" y="70" width="12" height="14" rx="3" fill="#fff" opacity=".8"/>
<rect x="62" y="70" width="12" height="14" rx="3" fill="#fff" opacity=".8"/>
<rect x="88" y="58" width="36" height="36" rx="9" fill="#1E3A5F"/>
<rect x="94" y="65" width="9" height="10" rx="2" fill="#38BDF8" opacity=".9"/>
<rect x="108" y="65" width="9" height="10" rx="2" fill="#38BDF8" opacity=".9"/>
<rect x="94" y="79" width="9" height="10" rx="2" fill="#38BDF8" opacity=".9"/>
<rect x="108" y="79" width="9" height="10" rx="2" fill="#38BDF8" opacity=".9"/>
<rect x="70" y="34" width="24" height="12" rx="5" fill="#FFD7BA" stroke="#FF7A1A" stroke-width="3"/>
</g>
</svg>
