<?xml version="1.0" encoding="UTF-8"?>
<svg id="_Слой_1" data-name="Слой_1" xmlns="http://www.w3.org/2000/svg" version="1.1" viewBox="0 0 1443.47 375.64">
  <!-- Generator: Adobe Illustrator 30.3.0, SVG Export Plug-In . SVG Version: 2.1.3 Build 182)  -->
  <defs>
    <style>
      .st0 {
        fill: #fb7317;
      }

      .st1 {
        fill: #22c98a;
      }

      .st2 {
        fill: #ffd7bb;
      }

      .st3 {
        fill: #0da5e9;
      }

      .st4 {
        fill: #121214;
      }

      .st5 {
        fill: #fdfdfd;
      }
    </style>
  </defs>
  <g>
    <g>
      <path class="st4" d="M1268.26,239.32c-23.39-.05-44.91-15.15-53.54-37.59-9.07-23.57-3.61-50.08,14.23-69.19,14.58-15.61,33.6-24.26,53.56-24.36l99.85-.47c7.85,0,14.81,1.1,21.19,2.43l.02-23.66c0-6.44-2.53-12.47-7.13-16.96-4.61-4.5-10.79-6.98-17.39-6.98l-92.93.2c-11.32.02-19.83,6.9-24.98,12.65-3.47,3.89-8.49,6.12-13.75,6.12-5.43,0-10.55-2.31-14.05-6.33-5.81-6.67-5.7-15.65.27-22.88,13.51-16.37,32.98-25.76,53.42-25.76l94.03.06c18.56.01,36.74,9.58,48.63,25.6,7.81,10.52,11.16,22.03,11.17,38.49l.11,129.78c0,5.07-1.73,9.8-4.88,13.34-3.35,3.76-8.05,5.83-13.25,5.83l-154.59-.32ZM1285.11,144.15c-11.21.02-22.71,5.55-30.01,14.42-6.33,7.69-8.83,16.99-7.05,26.21,2.09,10.81,11.23,18.66,21.72,18.67l133.81.12-.06-43.73c-1.4-8.5-7.9-14.28-17.88-15.89l-100.53.2Z"/>
      <path d="M1287.03,29.05h.04l93.99.06c18.87.01,35.77,9.97,46.63,24.59,8.31,11.2,10.66,23.17,10.68,37l.11,129.78c0,8.92-6.12,16.67-15.62,16.67-.01,0-.02,0-.04,0l-154.55-.32c-22.89-.05-43.2-15.16-51.21-35.99-8.94-23.25-3.06-48.61,13.73-66.59,13.3-14.25,31.22-23.47,51.74-23.57l99.43-.47c.13,0,.27,0,.4,0,8.31,0,15.58,1.22,23.69,3.03l.02-26.75c.01-14.75-12.03-26.44-27.02-26.44-.02,0-.04,0-.06,0l-92.87.2c-10.93.02-20.05,5.89-26.84,13.49-3.18,3.56-7.55,5.28-11.89,5.28s-9.03-1.87-12.16-5.47c-5.25-6.03-4.68-13.6.31-19.65,12.61-15.28,31.04-24.85,51.49-24.85M1406.09,206.06l-.07-46.43c-1.6-10.34-9.7-16.56-20.19-18.19l-100.73.21c-22.25.05-44.08,19.96-39.51,43.6,2.19,11.35,11.88,20.68,24.18,20.69l136.32.12M1287.07,24.05h-.05c-21.18,0-41.35,9.72-55.34,26.67-6.79,8.22-6.88,18.47-.22,26.11,3.98,4.57,9.78,7.19,15.93,7.19s11.67-2.53,15.62-6.95c4.81-5.38,12.72-11.8,23.12-11.82l92.87-.2h.05c5.95,0,11.51,2.23,15.64,6.27,4.12,4.02,6.38,9.41,6.38,15.17v20.61c-5.7-1.08-11.87-1.89-18.71-1.89h-.43s-99.43.47-99.43.47c-20.65.1-40.32,9.03-55.38,25.15-18.5,19.81-24.15,47.33-14.74,71.8,9,23.39,31.45,39.14,55.87,39.19l154.55.32c5.97,0,11.33-2.37,15.16-6.66,3.56-3.99,5.51-9.32,5.51-15.01l-.11-129.78c-.01-16.8-3.61-29.13-11.66-39.97-12.36-16.65-31.29-26.6-50.64-26.61l-93.99-.06h0ZM1401.09,201.06l-131.31-.11c-9.3,0-17.41-7.01-19.27-16.64-1.64-8.47.68-17.04,6.53-24.14,6.84-8.31,17.61-13.49,28.09-13.51l100.32-.2c4.4.75,13.82,3.52,15.59,13.6l.06,41.01h0Z"/>
    </g>
    <g>
      <g>
        <path class="st4" d="M663.82,239.82c-6.13,0-11.56-2.06-15.29-5.79-3.42-3.42-5.22-8.05-5.22-13.37l.14-119.97.43-60.15c.07-9.41,9.65-15.73,18.56-15.73h.14c8.77.07,18.18,6.63,18.2,16.29l.31,149.13,172.44-157.07c6.06-5.52,12.58-8.2,19.92-8.2.2,0,.4,0,.6,0,.17,0,.34,0,.51,0,5.08,0,9.74,1.86,13.12,5.25,3.46,3.47,5.36,8.3,5.35,13.6l-.32,180.06c-.02,10.2-10.58,15.74-18.2,15.81h-.17c-7.46,0-18.51-4.99-18.54-15.7l-.43-142.47-92.87,84.63-73.62,67.41-.09.07c-7.94,6.04-16.84,6.12-24.69,6.2h-.27Z"/>
        <path d="M662.44,27.31s.08,0,.12,0c7.09.06,15.7,5.2,15.72,13.79l.32,154.78,176.61-160.87c5.35-4.88,11.15-7.55,18.24-7.55.2,0,.4,0,.61,0,.17,0,.34,0,.5,0,9.24,0,15.99,6.89,15.97,16.34l-.32,180.06c-.01,8.28-8.89,13.25-15.73,13.32-.05,0-.1,0-.15,0-6.58,0-16.02-4.46-16.04-13.21l-.45-148.11-97.04,88.43-73.54,67.34c-7.01,5.33-14.83,5.61-23.2,5.69-.08,0-.16,0-.25,0-10.04,0-18.02-6.06-18.01-16.66l.14-119.97.43-60.13c.06-8.22,8.98-13.25,16.06-13.25M662.44,22.31c-10.11,0-20.99,7.32-21.06,18.21l-.43,60.13-.14,120c0,6,2.05,11.24,5.95,15.14,4.2,4.21,10.26,6.52,17.06,6.52h.29c7.83-.08,17.57-.17,26.17-6.71l.18-.14.17-.15,73.54-67.34,88.69-80.83.42,136.83c.03,11.24,10.95,18.2,21.04,18.2h.2c9.97-.1,20.66-7.48,20.68-18.31l.32-180.06c.01-5.97-2.15-11.43-6.08-15.37-3.85-3.86-9.14-5.98-14.89-5.98-.17,0-.34,0-.52,0-.2,0-.4,0-.59,0-8,0-15.07,2.9-21.61,8.85l-168.27,153.27-.3-143.49c-.02-11.5-10.75-18.7-20.68-18.78h-.16Z"/>
      </g>
      <g>
        <path class="st4" d="M492.32,239.7c-7.45,0-18.24-5.51-18.26-15.46l-.3-161.59h-87.66c-9.72-.02-17.81-7.91-18.03-17.61-.11-4.84,1.8-9.63,5.24-13.15,3.41-3.48,7.98-5.4,12.87-5.4l218.65.12c4.14,0,7.92,1.62,10.92,4.69,3.45,3.53,5.53,8.8,5.43,13.75-.21,9.65-7.91,17.51-17.16,17.52l-92.53.11.04,161.56-.07.28c-2.22,9.49-9.35,15.17-19.09,15.19h-.04Z"/>
        <path d="M386.18,28.98h0l218.64.12c8.71,0,14.01,8.61,13.85,15.89-.16,7.72-6.2,15.06-14.67,15.07l-95.03.11.04,163.77c-2.06,8.82-8.62,13.24-16.66,13.26-.01,0-.02,0-.04,0-6.33,0-15.74-4.72-15.76-12.97l-.3-164.09h-90.15c-8.72-.02-15.35-7.11-15.53-15.17-.19-8.25,6.4-15.99,15.61-15.99M386.19,23.98h-.01c-5.57,0-10.78,2.19-14.66,6.15-3.91,3.99-6.07,9.44-5.95,14.95.25,11.05,9.46,20.04,20.53,20.04h85.16s.3,159.11.3,159.11c.02,11.56,12.29,17.96,20.76,17.96h.06c10.8-.03,19.05-6.59,21.51-17.12l.13-.56v-.58s-.04-158.77-.04-158.77l90.03-.1c10.61-.01,19.43-8.97,19.66-19.96.12-5.68-2.17-11.5-6.14-15.55-3.48-3.56-7.88-5.44-12.71-5.44l-218.64-.12h0Z"/>
      </g>
    </g>
  </g>
  <path d="M315.72,26.33C299.68,9.78,278.75.62,256.79.55L89.12,0h-.27c-23.19,0-46.3,9.91-63.43,27.18C8.92,43.83-.06,64.92.13,86.59l.25,28.63.07,8.25,7.28-3.89,24.71-13.18,2.61-1.39.04-2.96.21-16.22c2.73-29.49,27.29-52.55,56-52.55l160.31.13c28.77.02,54.01,25.7,54.01,54.95v72.16c0,31.27-26.41,55.77-60.12,55.77h-.26s-155.43-.63-155.43-.63c-28.25-.11-52.71-24.32-54.61-54l-.02-21.44v-8.37s-7.37,3.97-7.37,3.97l-24.86,13.41-2.39,1.29-.22,2.7c-2.02,24.56,5.28,46.96,21.11,64.77,17.41,19.59,40.23,30.83,62.61,30.84l171.01.05c22.06,0,43.13-8.91,59.36-25.09,16.06-16.02,25.25-36.97,25.87-58.99v-.07s0-.07,0-.07v-79.16c.01-21.49-8.94-43.05-24.56-59.16Z"/>
  <path class="st0" d="M30.18,140.23l-.08-38.24.21-16.41c2.77-31.01,28.98-57.32,61.04-57.29l160.27.13c32.08.03,59,28.41,59,59.95v72.16c0,35.38-30.72,60.91-65.41,60.77l-155.43-.63c-32.26-.13-57.68-27.63-59.59-58.84l-.02-21.59ZM148.86,186.74l57.45-51.96c5.03-4.55,5.14-15.91.03-20.49l-58.48-52.29c-6.48-5.79-17.01-2.94-21.95,1.98-5.65,5.63-7.7,16.12-1.24,22.05l41.4,38.02-41.59,38.84c-6.52,6.08-3.97,17.36,1.96,22.64,5.54,4.93,15.74,7.26,22.43,1.21Z"/>
  <path class="st2" d="M148.86,186.74c-6.69,6.05-16.89,3.71-22.43-1.21-5.93-5.28-8.48-16.55-1.96-22.64l41.59-38.84-41.4-38.02c-6.46-5.93-4.41-16.43,1.24-22.05,4.94-4.92,15.47-7.77,21.95-1.98l58.48,52.29c5.11,4.57,5,15.94-.03,20.49l-57.45,51.96Z"/>
  <g>
    <g>
      <path class="st4" d="M960.12,239.67c-8.41,0-17.79-6.5-17.79-15.82l-.07-180.78c0-4.18,1.91-8.4,5.23-11.6,3.27-3.14,7.54-4.95,11.71-4.95l157.85.21c22.3.03,43.66,14.3,53.17,35.52,10.12,22.6,4.92,48.71-12.85,65.95,14.44,10.99,23.26,28.28,23.78,46.85.54,19.48-8.25,37.85-24.11,50.42l-.1.08c-9.04,6.43-21.34,13.81-36.29,13.83l-160.5.29ZM980.2,203.19l138.58-.02c11.59-1.29,20.96-9.15,23.91-20.06,3.12-11.57-1.4-23.51-11.52-30.4-5.46-3.72-11.07-5.38-18.17-5.38-.34,0-.67,0-1.01.01l-131.93.02.14,55.85ZM980.17,111.16l135.15-.44c7.36-.02,12.33-3.62,15.21-6.64,4.72-4.96,7.36-11.99,7.05-18.82-.58-12.88-11.17-22.59-24.62-22.6l-132.84-.04.06,48.54Z"/>
      <path d="M959.19,29.03h.02l157.83.2c22.15.03,42.1,14.42,50.89,34.04,10.28,22.96,4.05,48.91-14.52,65.16,16.04,10.91,24.72,28.55,25.22,46.68.52,18.8-7.85,36.26-23.17,48.39-10.52,7.48-21.74,13.35-34.85,13.37l-160.47.28s-.02,0-.03,0c-7.31,0-15.29-5.54-15.29-13.32l-.07-180.78c0-7.39,7.09-14.04,14.44-14.04M977.67,113.66l137.66-.45c15.57-.05,25.35-14.71,24.74-28.07-.64-14.12-12.4-24.98-27.12-24.98l-135.35-.04.07,53.55M977.71,205.69l141.21-.02c13.06-1.39,23.11-10.5,26.19-21.91,3.44-12.75-1.51-25.62-12.52-33.12-6.14-4.18-12.39-5.82-19.57-5.82-.35,0-.71,0-1.07.01l-134.38.02.15,60.84M959.22,24.03h-.02c-4.81,0-9.71,2.06-13.44,5.64-3.81,3.66-6,8.55-6,13.4l.07,180.78c0,10.96,10.5,18.32,20.29,18.32l160.5-.29c15.66-.03,28.39-7.65,37.74-14.3l.11-.08.1-.08c16.49-13.06,25.62-32.18,25.06-52.45-.51-18.36-8.83-35.52-22.55-47,16.92-17.95,21.58-44.04,11.41-66.75-9.9-22.1-32.18-36.97-55.44-37l-157.83-.2h0ZM982.66,108.65l-.06-43.53,130.34.04c12.09,0,21.6,8.69,22.12,20.21.28,6.07-2.16,12.58-6.36,16.98-2.54,2.66-6.92,5.84-13.4,5.87l-132.65.44h0ZM982.57,149.85l129.37-.02h.11c.32,0,.64-.01.96-.01,6.57,0,11.73,1.53,16.76,4.95,9.37,6.38,13.39,16.99,10.51,27.69-2.66,9.87-11.14,17-21.64,18.21l-135.94.02-.13-50.84h0Z"/>
    </g>
    <g>
      <path class="st5" d="M975.05,142.35l136.89-.02c.32,0,.7-.01,1.07-.01,8.06,0,14.72,1.99,20.98,6.25,11.9,8.11,17.21,22.18,13.53,35.84-3.5,12.96-14.62,22.28-28.34,23.75h-.13s-143.83.04-143.83.04l-.16-65.84Z"/>
      <path d="M1113.01,144.82c7.18,0,13.43,1.64,19.57,5.82,11.01,7.5,15.96,20.37,12.52,33.12-3.08,11.41-13.12,20.52-26.19,21.91l-141.21.02-.15-60.84,134.38-.02c.36,0,.72-.01,1.07-.01M1113.01,139.82c-.37,0-.75,0-1.12.01l-134.33.02h-5.01s.01,5.01.01,5.01l.15,60.84v4.99s5,0,5,0l141.21-.02h.27s.26-.03.26-.03c14.75-1.57,26.72-11.61,30.48-25.58,3.97-14.7-1.74-29.84-14.53-38.56-6.69-4.56-13.81-6.69-22.39-6.69h0Z"/>
    </g>
    <g>
      <path class="st5" d="M975.1,57.61l137.85.04c15.91,0,28.92,12.03,29.61,27.37.37,8.16-2.78,16.57-8.42,22.49-5.08,5.34-11.59,8.17-18.81,8.19l-140.16.46-.07-58.56Z"/>
      <path d="M977.6,60.11l135.35.04c14.72,0,26.48,10.86,27.12,24.98.61,13.36-9.17,28.02-24.74,28.07l-137.66.45-.07-53.55M972.59,55.11v5.01s.07,53.55.07,53.55v5.01s5.02-.02,5.02-.02l137.66-.45c7.81-.03,15.13-3.21,20.61-8.97,6.1-6.41,9.51-15.5,9.11-24.33-.37-8.16-3.88-15.7-9.89-21.24-5.96-5.49-13.85-8.52-22.22-8.52l-135.35-.04h-5.01Z"/>
    </g>
  </g>
  <path class="st5" d="M1406.09,206.06l-136.32-.12c-12.3-.01-21.98-9.35-24.18-20.69-4.57-23.64,17.26-43.56,39.51-43.6l100.73-.21c10.49,1.62,18.59,7.85,20.19,18.19l.07,46.43Z"/>
  <g>
    <path d="M63.71,301.43v57.72h-8.08v-50.54H22.15v50.54h-8.16v-57.72h49.72Z"/>
    <path d="M114.91,317.84c3.35,1.87,5.98,4.48,7.87,7.83,1.9,3.35,2.84,7.23,2.84,11.62s-.95,8.29-2.84,11.67c-1.9,3.38-4.52,6.01-7.87,7.87-3.35,1.87-7.15,2.8-11.38,2.8-3.13,0-6.01-.6-8.62-1.81-2.61-1.21-4.82-2.97-6.64-5.28v22.59h-7.92v-59.7h7.59v6.93c1.76-2.42,3.98-4.25,6.68-5.48,2.69-1.24,5.66-1.85,8.9-1.85,4.23,0,8.03.94,11.38,2.8ZM110.42,350.78c2.23-1.29,3.98-3.1,5.28-5.44,1.29-2.34,1.94-5.02,1.94-8.04s-.65-5.7-1.94-8.04c-1.29-2.33-3.05-4.13-5.28-5.4-2.23-1.26-4.74-1.9-7.54-1.9s-5.24.65-7.46,1.94c-2.23,1.29-3.99,3.09-5.28,5.4-1.29,2.31-1.94,4.97-1.94,8s.63,5.7,1.9,8.04c1.26,2.34,3.02,4.15,5.28,5.44,2.25,1.29,4.75,1.94,7.5,1.94s5.32-.65,7.54-1.94Z"/>
    <path d="M144.1,356.76c-3.46-1.92-6.17-4.58-8.12-7.96-1.95-3.38-2.93-7.21-2.93-11.5s.98-8.12,2.93-11.5c1.95-3.38,4.66-6.02,8.12-7.92s7.37-2.84,11.71-2.84,8.23.95,11.67,2.84c3.43,1.9,6.13,4.53,8.08,7.92,1.95,3.38,2.93,7.21,2.93,11.5s-.98,8.12-2.93,11.5c-1.95,3.38-4.65,6.03-8.08,7.96-3.44,1.92-7.33,2.89-11.67,2.89s-8.25-.96-11.71-2.89ZM163.35,350.78c2.23-1.29,3.97-3.1,5.24-5.44,1.26-2.34,1.9-5.02,1.9-8.04s-.63-5.7-1.9-8.04c-1.27-2.33-3.01-4.13-5.24-5.4-2.23-1.26-4.74-1.9-7.54-1.9s-5.32.63-7.54,1.9c-2.23,1.27-3.99,3.07-5.28,5.4-1.29,2.34-1.94,5.02-1.94,8.04s.65,5.7,1.94,8.04c1.29,2.34,3.05,4.15,5.28,5.44,2.23,1.29,4.74,1.94,7.54,1.94s5.32-.65,7.54-1.94Z"/>
    <path d="M197.08,356.76c-3.49-1.92-6.23-4.58-8.2-7.96-1.98-3.38-2.97-7.21-2.97-11.5s.99-8.12,2.97-11.5,4.71-6.02,8.2-7.92c3.49-1.9,7.46-2.84,11.91-2.84,3.96,0,7.49.8,10.6,2.39,3.1,1.6,5.51,3.9,7.21,6.93l-6.02,3.88c-1.38-2.09-3.08-3.66-5.11-4.7-2.03-1.04-4.29-1.57-6.76-1.57-2.86,0-5.43.63-7.71,1.9-2.28,1.27-4.07,3.07-5.36,5.4-1.29,2.34-1.94,5.02-1.94,8.04s.65,5.79,1.94,8.12c1.29,2.34,3.08,4.14,5.36,5.4,2.28,1.27,4.85,1.9,7.71,1.9,2.47,0,4.73-.52,6.76-1.57,2.03-1.04,3.74-2.61,5.11-4.7l6.02,3.79c-1.7,3.02-4.11,5.35-7.21,6.97-3.11,1.62-6.64,2.43-10.6,2.43-4.45,0-8.42-.96-11.91-2.89Z"/>
    <path d="M269.02,322.38h-16v36.77h-7.92v-36.77h-16v-6.93h39.91v6.93Z"/>
    <path d="M282.21,356.76c-3.46-1.92-6.17-4.58-8.12-7.96-1.95-3.38-2.93-7.21-2.93-11.5s.98-8.12,2.93-11.5c1.95-3.38,4.66-6.02,8.12-7.92s7.37-2.84,11.71-2.84,8.23.95,11.67,2.84c3.43,1.9,6.13,4.53,8.08,7.92,1.95,3.38,2.93,7.21,2.93,11.5s-.98,8.12-2.93,11.5c-1.95,3.38-4.65,6.03-8.08,7.96-3.44,1.92-7.33,2.89-11.67,2.89s-8.25-.96-11.71-2.89ZM301.46,350.78c2.23-1.29,3.97-3.1,5.24-5.44,1.26-2.34,1.9-5.02,1.9-8.04s-.63-5.7-1.9-8.04c-1.27-2.33-3.01-4.13-5.24-5.4-2.23-1.26-4.74-1.9-7.54-1.9s-5.32.63-7.54,1.9c-2.23,1.27-3.99,3.07-5.28,5.4-1.29,2.34-1.94,5.02-1.94,8.04s.65,5.7,1.94,8.04c1.29,2.34,3.05,4.15,5.28,5.44,2.23,1.29,4.74,1.94,7.54,1.94s5.32-.65,7.54-1.94Z"/>
    <path class="st3" d="M367.22,340.68h-9.07v18.47h-7.92v-43.7h7.92v18.47h9.23l14.18-18.47h8.49l-16.57,21.03,17.73,22.67h-9.32l-14.68-18.47Z"/>
    <path class="st3" d="M436.07,315.45l-21.19,48.07c-1.87,4.45-4.05,7.59-6.56,9.4-2.5,1.81-5.51,2.72-9.03,2.72-2.14,0-4.22-.34-6.23-1.03-2.01-.69-3.67-1.69-4.99-3.01l3.38-5.94c2.25,2.14,4.86,3.22,7.83,3.22,1.92,0,3.53-.51,4.82-1.53,1.29-1.02,2.46-2.76,3.5-5.24l1.4-3.05-19.29-43.62h8.25l15.25,34.96,15.09-34.96h7.75Z"/>
    <path class="st3" d="M484.63,315.45v43.7h-7.92v-36.77h-24.65v36.77h-7.92v-43.7h40.48Z"/>
    <path class="st3" d="M499.97,315.45h7.92v31.83l26.8-31.83h7.17v43.7h-7.92v-31.83l-26.72,31.83h-7.26v-43.7Z"/>
    <path class="st3" d="M589.76,322.38h-16v36.77h-7.92v-36.77h-16v-6.93h39.91v6.93Z"/>
    <path class="st3" d="M630.74,334.08c2.91,2.47,4.37,5.96,4.37,10.47,0,4.73-1.58,8.37-4.74,10.93-3.16,2.56-7.68,3.81-13.56,3.75l-18.96-.08v-43.7h7.92v14.76l12.29.08c5.55.05,9.78,1.32,12.7,3.79ZM624.26,351.07c1.84-1.48,2.76-3.68,2.76-6.6s-.89-4.95-2.68-6.27c-1.79-1.32-4.52-2.01-8.2-2.06l-10.39-.16v17.15l10.39.08c3.57.06,6.28-.66,8.12-2.14Z"/>
    <path class="st3" d="M642.45,358.04c-1.1-1.07-1.65-2.43-1.65-4.08s.55-2.93,1.65-4c1.1-1.07,2.42-1.61,3.96-1.61s2.83.52,3.88,1.57c1.04,1.04,1.57,2.39,1.57,4.04s-.54,3.01-1.61,4.08c-1.07,1.07-2.35,1.61-3.83,1.61s-2.86-.54-3.96-1.61Z"/>
    <path d="M736.61,301.43v57.72h-8.08v-50.54h-33.48v50.54h-8.16v-57.72h49.72Z"/>
    <path d="M787.81,317.84c3.35,1.87,5.98,4.48,7.88,7.83,1.9,3.35,2.84,7.23,2.84,11.62s-.95,8.29-2.84,11.67c-1.9,3.38-4.52,6.01-7.88,7.87-3.35,1.87-7.15,2.8-11.38,2.8-3.13,0-6.01-.6-8.62-1.81-2.61-1.21-4.82-2.97-6.64-5.28v22.59h-7.92v-59.7h7.59v6.93c1.76-2.42,3.98-4.25,6.68-5.48,2.69-1.24,5.66-1.85,8.91-1.85,4.23,0,8.02.94,11.38,2.8ZM783.32,350.78c2.23-1.29,3.98-3.1,5.28-5.44,1.29-2.34,1.94-5.02,1.94-8.04s-.65-5.7-1.94-8.04c-1.29-2.33-3.05-4.13-5.28-5.4-2.23-1.26-4.74-1.9-7.54-1.9s-5.24.65-7.46,1.94c-2.23,1.29-3.99,3.09-5.28,5.4-1.29,2.31-1.94,4.97-1.94,8s.63,5.7,1.9,8.04c1.26,2.34,3.02,4.15,5.28,5.44,2.25,1.29,4.75,1.94,7.5,1.94s5.32-.65,7.54-1.94Z"/>
    <path d="M817,356.76c-3.46-1.92-6.17-4.58-8.12-7.96-1.95-3.38-2.93-7.21-2.93-11.5s.98-8.12,2.93-11.5,4.66-6.02,8.12-7.92,7.37-2.84,11.71-2.84,8.23.95,11.67,2.84,6.13,4.53,8.08,7.92c1.95,3.38,2.93,7.21,2.93,11.5s-.98,8.12-2.93,11.5c-1.95,3.38-4.65,6.03-8.08,7.96-3.44,1.92-7.33,2.89-11.67,2.89s-8.25-.96-11.71-2.89ZM836.25,350.78c2.23-1.29,3.97-3.1,5.24-5.44,1.26-2.34,1.9-5.02,1.9-8.04s-.63-5.7-1.9-8.04c-1.26-2.33-3.01-4.13-5.24-5.4-2.23-1.26-4.74-1.9-7.54-1.9s-5.32.63-7.54,1.9c-2.23,1.27-3.99,3.07-5.28,5.4-1.29,2.34-1.94,5.02-1.94,8.04s.65,5.7,1.94,8.04c1.29,2.34,3.05,4.15,5.28,5.44,2.23,1.29,4.74,1.94,7.54,1.94s5.32-.65,7.54-1.94Z"/>
    <path d="M869.97,356.76c-3.49-1.92-6.23-4.58-8.2-7.96-1.98-3.38-2.97-7.21-2.97-11.5s.99-8.12,2.97-11.5c1.98-3.38,4.71-6.02,8.2-7.92,3.49-1.9,7.46-2.84,11.91-2.84,3.96,0,7.49.8,10.6,2.39,3.1,1.6,5.51,3.9,7.21,6.93l-6.02,3.88c-1.38-2.09-3.08-3.66-5.11-4.7-2.03-1.04-4.29-1.57-6.76-1.57-2.86,0-5.43.63-7.71,1.9-2.28,1.27-4.07,3.07-5.36,5.4-1.29,2.34-1.94,5.02-1.94,8.04s.65,5.79,1.94,8.12c1.29,2.34,3.08,4.14,5.36,5.4,2.28,1.27,4.85,1.9,7.71,1.9,2.47,0,4.73-.52,6.76-1.57,2.03-1.04,3.74-2.61,5.11-4.7l6.02,3.79c-1.7,3.02-4.11,5.35-7.21,6.97-3.11,1.62-6.64,2.43-10.6,2.43-4.45,0-8.42-.96-11.91-2.89Z"/>
    <path d="M941.91,322.38h-16v36.77h-7.92v-36.77h-16v-6.93h39.91v6.93Z"/>
    <path d="M955.11,356.76c-3.46-1.92-6.17-4.58-8.12-7.96-1.95-3.38-2.93-7.21-2.93-11.5s.98-8.12,2.93-11.5,4.66-6.02,8.12-7.92,7.37-2.84,11.71-2.84,8.23.95,11.67,2.84,6.13,4.53,8.08,7.92c1.95,3.38,2.93,7.21,2.93,11.5s-.98,8.12-2.93,11.5c-1.95,3.38-4.65,6.03-8.08,7.96-3.44,1.92-7.33,2.89-11.67,2.89s-8.25-.96-11.71-2.89ZM974.36,350.78c2.23-1.29,3.97-3.1,5.24-5.44,1.26-2.34,1.9-5.02,1.9-8.04s-.63-5.7-1.9-8.04c-1.26-2.33-3.01-4.13-5.24-5.4-2.23-1.26-4.74-1.9-7.54-1.9s-5.32.63-7.54,1.9c-2.23,1.27-3.99,3.07-5.28,5.4-1.29,2.34-1.94,5.02-1.94,8.04s.65,5.7,1.94,8.04c1.29,2.34,3.05,4.15,5.28,5.44,2.23,1.29,4.74,1.94,7.54,1.94s5.32-.65,7.54-1.94Z"/>
    <path class="st1" d="M1063.61,315.45v43.7h-7.92v-36.77h-24.65v36.77h-7.92v-43.7h40.48Z"/>
    <path class="st1" d="M1113.5,317.84c3.35,1.87,5.98,4.48,7.88,7.83,1.9,3.35,2.84,7.23,2.84,11.62s-.95,8.29-2.84,11.67c-1.9,3.38-4.52,6.01-7.88,7.87-3.35,1.87-7.15,2.8-11.38,2.8-3.13,0-6.01-.6-8.62-1.81-2.61-1.21-4.82-2.97-6.64-5.28v22.59h-7.92v-59.7h7.59v6.93c1.76-2.42,3.98-4.25,6.68-5.48,2.69-1.24,5.66-1.85,8.91-1.85,4.23,0,8.02.94,11.38,2.8ZM1109,350.78c2.23-1.29,3.98-3.1,5.28-5.44,1.29-2.34,1.94-5.02,1.94-8.04s-.65-5.7-1.94-8.04c-1.29-2.33-3.05-4.13-5.28-5.4-2.23-1.26-4.74-1.9-7.54-1.9s-5.24.65-7.46,1.94c-2.23,1.29-3.99,3.09-5.28,5.4-1.29,2.31-1.94,4.97-1.94,8s.63,5.7,1.9,8.04c1.26,2.34,3.02,4.15,5.28,5.44,2.25,1.29,4.75,1.94,7.5,1.94s5.32-.65,7.54-1.94Z"/>
    <path class="st1" d="M1142.69,356.76c-3.46-1.92-6.17-4.58-8.12-7.96-1.95-3.38-2.93-7.21-2.93-11.5s.98-8.12,2.93-11.5,4.66-6.02,8.12-7.92,7.37-2.84,11.71-2.84,8.23.95,11.67,2.84,6.13,4.53,8.08,7.92c1.95,3.38,2.93,7.21,2.93,11.5s-.98,8.12-2.93,11.5c-1.95,3.38-4.65,6.03-8.08,7.96-3.44,1.92-7.33,2.89-11.67,2.89s-8.25-.96-11.71-2.89ZM1161.94,350.78c2.23-1.29,3.97-3.1,5.24-5.44,1.26-2.34,1.9-5.02,1.9-8.04s-.63-5.7-1.9-8.04c-1.26-2.33-3.01-4.13-5.24-5.4-2.23-1.26-4.74-1.9-7.54-1.9s-5.32.63-7.54,1.9c-2.23,1.27-3.99,3.07-5.28,5.4-1.29,2.34-1.94,5.02-1.94,8.04s.65,5.7,1.94,8.04c1.29,2.34,3.05,4.15,5.28,5.44,2.23,1.29,4.74,1.94,7.54,1.94s5.32-.65,7.54-1.94Z"/>
    <path class="st1" d="M1232.64,352.22v17.07h-7.42v-10.14h-36.53v10.14h-7.5v-17.07h2.31c2.8-.17,4.73-2.14,5.77-5.94,1.04-3.79,1.76-9.15,2.14-16.08l.66-14.76h33.89v36.77h6.68ZM1197.31,344.43c-.69,3.6-1.94,6.2-3.75,7.79h24.49v-29.85h-18.96l-.41,8.41c-.22,5.5-.67,10.05-1.36,13.65Z"/>
    <path class="st1" d="M1272.42,319.49c3.22,2.97,4.82,7.39,4.82,13.28v26.38h-7.5v-5.77c-1.32,2.03-3.2,3.59-5.65,4.66-2.45,1.07-5.35,1.61-8.7,1.61-4.89,0-8.81-1.18-11.75-3.55-2.94-2.36-4.41-5.47-4.41-9.32s1.4-6.94,4.21-9.28c2.8-2.34,7.26-3.5,13.36-3.5h12.53v-1.57c0-3.41-.99-6.02-2.97-7.83-1.98-1.81-4.89-2.72-8.74-2.72-2.58,0-5.11.43-7.59,1.28-2.47.85-4.56,1.99-6.27,3.42l-3.3-5.94c2.25-1.81,4.95-3.2,8.08-4.16,3.13-.96,6.46-1.44,9.98-1.44,6.05,0,10.68,1.48,13.89,4.45ZM1264.55,351.52c2.2-1.35,3.79-3.26,4.78-5.73v-6.1h-12.2c-6.71,0-10.06,2.25-10.06,6.76,0,2.2.85,3.93,2.56,5.2,1.7,1.26,4.07,1.9,7.09,1.9s5.63-.67,7.83-2.02Z"/>
    <path class="st1" d="M1324.08,322.38h-16v36.77h-7.92v-36.77h-16v-6.93h39.91v6.93Z"/>
    <path class="st1" d="M1365.06,334.08c2.91,2.47,4.37,5.96,4.37,10.47,0,4.73-1.58,8.37-4.74,10.93-3.16,2.56-7.68,3.81-13.56,3.75l-18.96-.08v-43.7h7.92v14.76l12.29.08c5.55.05,9.78,1.32,12.7,3.79ZM1358.59,351.07c1.84-1.48,2.76-3.68,2.76-6.6s-.89-4.95-2.68-6.27c-1.79-1.32-4.52-2.01-8.2-2.06l-10.39-.16v17.15l10.39.08c3.57.06,6.28-.66,8.12-2.14Z"/>
    <path class="st1" d="M1376.77,358.04c-1.1-1.07-1.65-2.43-1.65-4.08s.55-2.93,1.65-4c1.1-1.07,2.42-1.61,3.96-1.61s2.83.52,3.88,1.57c1.04,1.04,1.57,2.39,1.57,4.04s-.54,3.01-1.61,4.08c-1.07,1.07-2.35,1.61-3.83,1.61s-2.86-.54-3.96-1.61Z"/>
  </g>
</svg>